<svg id="Layer_1" data-name="Layer 1" xmlns="http://www.w3.org/2000/svg" viewBox="0 0 100 100"><defs><style>.cls-1{fill:#00a651;}</style></defs><polygon class="cls-1" points="63.82 70.83 66.05 72.05 67.13 69.99 64.87 68.78 63.82 70.83"/><polygon class="cls-1" points="40.6 58.03 41.79 55.97 39.47 54.75 38.4 56.78 40.6 58.03"/><polygon class="cls-1" points="37.96 56.09 35.65 54.9 34.6 56.9 36.89 58.09 37.96 56.09"/><polygon class="cls-1" points="39.06 52.87 36.78 51.65 35.73 53.71 37.99 54.93 39.06 52.87"/><path class="cls-1" d="M16.28,62.84c0-.61.26-.9.79-.9a1.56,1.56,0,0,1,.84.35,1.52,1.52,0,0,0,.72.31c.26,0,.4-.17.4-.54a.93.93,0,0,0-.43-.79,1.66,1.66,0,0,0-1.07-.35,2.57,2.57,0,0,0-2,1.14,3.54,3.54,0,0,0-.93,2.28,4.45,4.45,0,0,0,.1.91H13.08v1.54H20l.14-2.13a12.41,12.41,0,0,0-2.55.47A4.41,4.41,0,0,1,16.28,62.84Z"/><polygon class="cls-1" points="79.67 64.11 68.36 64.11 68.36 60.61 65.9 60.61 65.9 64.11 49.52 64.11 49.52 61.6 47.06 61.6 47.06 64.11 47.06 66.95 47.06 67.98 40.69 67.98 40.69 70.44 47.06 70.44 49.52 70.44 49.52 67.98 49.52 66.95 79.9 66.95 79.9 66.95 82 66.95 82 66.91 82.14 66.91 82.14 46.08 79.67 46.08 79.67 64.11"/><rect class="cls-1" x="84.45" y="46.08" width="2.46" height="20.83"/><polygon class="cls-1" points="32.03 66.96 44.95 66.96 44.95 66.95 44.95 64.49 44.95 60.39 42.48 60.39 42.48 64.49 39.72 64.49 39.72 60.39 37.26 60.39 37.26 64.49 34.5 64.49 34.5 60.39 32.03 60.39 32.03 64.49 23.38 64.49 23.38 46.1 20.92 46.1 20.92 64.49 20.92 64.49 20.92 66.95 32.03 66.95 32.03 66.95 32.03 66.96"/><path class="cls-1" d="M59.56,32.68h0v0Z"/><path class="cls-1" d="M67.18,41.12h0Z"/><path class="cls-1" d="M56.05,32.7v0h0Z"/><path class="cls-1" d="M66,41.13h0Z"/><path class="cls-1" d="M49.82,43.43h0Z"/><path class="cls-1" d="M57.23,15.19A22.16,22.16,0,1,0,79.38,37.34,22.16,22.16,0,0,0,57.23,15.19ZM68.36,50.47A38.11,38.11,0,0,0,62,53.88a24,24,0,0,1-7.89,3.47,12.51,12.51,0,0,1-5.17,0,14.57,14.57,0,0,0,3.51-.24,24.19,24.19,0,0,0,7.88-3.48,39.29,39.29,0,0,1,6.36-3.41,8.28,8.28,0,0,1,5-.23A7.19,7.19,0,0,0,68.36,50.47Zm-.42-2.4a38.52,38.52,0,0,0-6.36,3.41A24.19,24.19,0,0,1,53.7,55c-2.51.46-5.45.45-7.6-1.09a8.11,8.11,0,0,1-3-4.86l0-.14s1,2.8,5,3.48l.12-1.59.59-.06-.59-.06.1-1.36.49,0-.48-.05.09-1.38.39,0-.38,0,.09-1.4.29,0-.28,0,.1-1.42h.18l-.18,0,0-.66h-.07l-.09,0a.2.2,0,0,1-.19.14.2.2,0,0,1-.2-.2.19.19,0,0,1,0-.08h0a.12.12,0,0,1-.12-.12.13.13,0,0,1,.06-.11l0,0-.1,0a.18.18,0,0,1-.17-.17.19.19,0,0,1,.09-.16c-1.58,0-4.5.31-5.91,2.65a3,3,0,0,1,1.09-1.71,1.61,1.61,0,0,0-.86.46A3.09,3.09,0,0,1,44,43.67a3.64,3.64,0,0,0-1.6.39,4.59,4.59,0,0,1,3.14-.83,5.7,5.7,0,0,0-2.3.11A5.75,5.75,0,0,1,47,43a6.16,6.16,0,0,0-2.2-.32,6.66,6.66,0,0,1,1.7,0,5.75,5.75,0,0,0-4.89,1,3,3,0,0,1,1.59-1.26,1.66,1.66,0,0,0-1,.15,3.15,3.15,0,0,1,2.08-.51,3.54,3.54,0,0,0-1.63-.15,4.58,4.58,0,0,1,3.23.23,5.64,5.64,0,0,0-2.21-.64,5.76,5.76,0,0,1,3.62.93,6.18,6.18,0,0,0-2-1l.22,0a5.23,5.23,0,0,0-3.77.06,3,3,0,0,1,1.89-.74,1.57,1.57,0,0,0-1-.13,3.05,3.05,0,0,1,2.13.11,3.62,3.62,0,0,0-1.51-.62,4.59,4.59,0,0,1,3,1.17,5.72,5.72,0,0,0-1.93-1.26A5.69,5.69,0,0,1,47.6,42,6.12,6.12,0,0,0,46,40.46a5.65,5.65,0,0,1,2.32,2.13,5.54,5.54,0,0,0-1-1.42s.1.07.26.21a5.92,5.92,0,0,0-4.5-2.48,3,3,0,0,1,2,.06,1.59,1.59,0,0,0-.83-.5,3.07,3.07,0,0,1,1.91.95,3.62,3.62,0,0,0-1.14-1.18A4.65,4.65,0,0,1,47.4,40.5a5.64,5.64,0,0,0-1.27-1.92,5.78,5.78,0,0,1,2.16,3.06,6,6,0,0,0-.85-2,6.12,6.12,0,0,1,1.16,2.13l0-.21a4.38,4.38,0,0,0-.21-.73,4.25,4.25,0,0,1,.24.48L49,38.78,49.21,41c.07-.17.12-.27.12-.27s-.08.24-.11.36l0,.3a6.31,6.31,0,0,1,1-1.87,6.06,6.06,0,0,0-.79,2.07,5.75,5.75,0,0,1,2.08-3.11,5.74,5.74,0,0,0-1.22,2,4.61,4.61,0,0,1,2.25-2.33,3.63,3.63,0,0,0-1.11,1.2,3.1,3.1,0,0,1,1.89-1,1.65,1.65,0,0,0-.82.53,3.05,3.05,0,0,1,2-.12A6,6,0,0,0,50,41.6a3.49,3.49,0,0,1,.47-.43,5.54,5.54,0,0,0-1,1.42,5.65,5.65,0,0,1,2.32-2.13A6.12,6.12,0,0,0,50.22,42a5.76,5.76,0,0,1,3.2-1.95,5.72,5.72,0,0,0-1.93,1.26,4.59,4.59,0,0,1,3-1.17,3.62,3.62,0,0,0-1.51.62,3.05,3.05,0,0,1,2.13-.11,1.65,1.65,0,0,0-1,.13,3,3,0,0,1,1.89.74,5.22,5.22,0,0,0-3.85,0,3.71,3.71,0,0,1,.37-.08,6.18,6.18,0,0,0-2,1,5.8,5.8,0,0,1,3.63-.93,5.9,5.9,0,0,0-2.22.64,4.61,4.61,0,0,1,3.24-.23,3.56,3.56,0,0,0-1.64.15,3.12,3.12,0,0,1,2.08.52,1.59,1.59,0,0,0-1-.16,3,3,0,0,1,1.58,1.26,5.69,5.69,0,0,0-4.8-1,6.76,6.76,0,0,1,1.54,0,6.16,6.16,0,0,0-2.2.32,5.75,5.75,0,0,1,3.73.3,5.7,5.7,0,0,0-2.3-.11,4.59,4.59,0,0,1,3.14.83,3.64,3.64,0,0,0-1.6-.39,3.09,3.09,0,0,1,1.8,1.16,1.64,1.64,0,0,0-.86-.45,3,3,0,0,1,1.09,1.7c-1.41-2.34-4.3-2.66-5.86-2.65a.17.17,0,0,1-.08.33l-.09,0s0,0,0,0a.15.15,0,0,1,.06.11.12.12,0,0,1-.13.12h0a.19.19,0,0,1,0,.08.2.2,0,0,1-.2.2.2.2,0,0,1-.19-.14l-.08,0h0l0,.66-.18,0h.18l.1,1.42-.28,0,.29,0,.09,1.4-.38,0,.39,0,.1,1.38-.49.05.49,0,.1,1.36-.59.06.59.06.13,1.74a18.25,18.25,0,0,0,5.42-.85l.87-.27.29-4.05,1.19-.11-1.18-.12.19-2.72,1-.09-1-.1.19-2.77.78-.06-.77-.09.2-2.8.57,0L57,38.36l.2-2.84.37,0-.36,0,.09-1.32-.14,0a.33.33,0,0,1-.17,0A.4.4,0,0,1,56.2,34a.41.41,0,0,1,0-.16h0a.25.25,0,0,1-.25-.25.24.24,0,0,1,.12-.21.36.36,0,0,1,0-.09.37.37,0,0,1-.18.05.36.36,0,0,1-.36-.35.37.37,0,0,1,.19-.32c-3.16,0-9,.61-11.82,5.31A6.07,6.07,0,0,1,46,34.56a3.19,3.19,0,0,0-1.72.92,6.21,6.21,0,0,1,3.59-2.33,7.21,7.21,0,0,0-3.19.78A9.22,9.22,0,0,1,51,32.27a11.39,11.39,0,0,0-4.6.22,11.52,11.52,0,0,1,7.46-.6,12.33,12.33,0,0,0-4.39-.63,12.7,12.7,0,0,1,3.39-.08c-3-.57-6.76-.52-9.78,2a6.07,6.07,0,0,1,3.18-2.52,3.21,3.21,0,0,0-1.93.3,6.13,6.13,0,0,1,4.15-1,7.15,7.15,0,0,0-3.26-.31,9.23,9.23,0,0,1,6.47.47,11.34,11.34,0,0,0-4.43-1.28A11.48,11.48,0,0,1,54.5,30.7a12.43,12.43,0,0,0-3.94-2l.43.08a10.51,10.51,0,0,0-7.54.13,6.06,6.06,0,0,1,3.78-1.48,3.18,3.18,0,0,0-1.94-.27,6.19,6.19,0,0,1,4.27.22,7.1,7.1,0,0,0-3-1.24,9.19,9.19,0,0,1,6,2.34,11.44,11.44,0,0,0-3.86-2.52,11.43,11.43,0,0,1,6.39,3.9,12.41,12.41,0,0,0-3.18-3.1A11.32,11.32,0,0,1,56.57,31a11.1,11.1,0,0,0-1.91-2.84,5.92,5.92,0,0,1,.51.42c-2-2.41-5-4.95-9-5a6,6,0,0,1,4,.13,3.24,3.24,0,0,0-1.67-1,6.15,6.15,0,0,1,3.83,1.9,7.21,7.21,0,0,0-2.29-2.35,9.24,9.24,0,0,1,4.63,4.54A11.45,11.45,0,0,0,52.18,23a11.51,11.51,0,0,1,4.32,6.11A12.17,12.17,0,0,0,54.8,25a12.42,12.42,0,0,1,2.32,4.26l.05-.42a7.8,7.8,0,0,0-.42-1.45,6.31,6.31,0,0,1,.48.95l.58-4.95.53,4.48a4.76,4.76,0,0,1,.24-.54,5.83,5.83,0,0,0-.22.71l.07.6a12.78,12.78,0,0,1,2-3.74A12.32,12.32,0,0,0,58.87,29,11.49,11.49,0,0,1,63,22.81a11.59,11.59,0,0,0-2.45,3.91,9.19,9.19,0,0,1,4.51-4.66,7.23,7.23,0,0,0-2.23,2.4,6.2,6.2,0,0,1,3.78-2A3.23,3.23,0,0,0,65,23.52a6.06,6.06,0,0,1,4-.24c-4.34.13-7.36,3.14-9.18,5.74a8.05,8.05,0,0,1,.93-.87A11.1,11.1,0,0,0,58.9,31a11.32,11.32,0,0,1,4.64-4.26,12.41,12.41,0,0,0-3.18,3.1,11.43,11.43,0,0,1,6.39-3.9,11.44,11.44,0,0,0-3.86,2.52,9.2,9.2,0,0,1,6-2.34,7.21,7.21,0,0,0-3,1.25,6.16,6.16,0,0,1,4.27-.23,3.26,3.26,0,0,0-1.94.27A6.06,6.06,0,0,1,72,28.88a10.48,10.48,0,0,0-7.71-.05,7.2,7.2,0,0,1,.75-.16,12.4,12.4,0,0,0-4,2,11.51,11.51,0,0,1,7.26-1.86,11.53,11.53,0,0,0-4.43,1.28,9.23,9.23,0,0,1,6.47-.47,7.2,7.2,0,0,0-3.27.31,6.21,6.21,0,0,1,4.16,1,3.25,3.25,0,0,0-1.93-.31,6,6,0,0,1,3.17,2.52c-3-2.49-6.65-2.58-9.6-2.05a12.48,12.48,0,0,1,3.07.11,12.33,12.33,0,0,0-4.39.63,11.48,11.48,0,0,1,7.46.61,11.46,11.46,0,0,0-4.6-.23,9.22,9.22,0,0,1,6.27,1.66,7.3,7.3,0,0,0-3.19-.77,6.17,6.17,0,0,1,3.59,2.32,3.26,3.26,0,0,0-1.72-.92A6.07,6.07,0,0,1,71.61,38c-2.81-4.7-8.6-5.33-11.71-5.31a.37.37,0,0,1,.19.32.35.35,0,0,1-.35.35.38.38,0,0,1-.19-.05.36.36,0,0,1,0,.09.24.24,0,0,1,.12.21.25.25,0,0,1-.25.25h0a.41.41,0,0,1,0,.16.4.4,0,0,1-.78.12.33.33,0,0,1-.17,0h-.1l.09,1.31-.37,0,.37,0,.2,2.84-.57.06.58,0,.19,2.81-.77.08.78.06.2,2.77-1,.1,1,.09.19,2.72-1.18.12,1.2.11.19,2.83c1.38-.55,2.73-1.14,4.09-1.73.81-.35,1.63-.71,2.47-1l.09-1.32.41,0-.4,0,.06-.92.34,0-.33,0,.06-.94.27,0-.26,0,.06-.95h.2l-.2,0,.07-1h0l0-.45H66.3a.14.14,0,0,1-.13.1.14.14,0,0,1-.13-.14.07.07,0,0,1,0,0h0a.09.09,0,0,1-.09-.09.1.1,0,0,1,0-.07s0,0,0,0l-.06,0a.12.12,0,0,1-.06-.23c-1.07,0-3.06.21-4,1.8a2.06,2.06,0,0,1,.75-1.16,1.1,1.1,0,0,0-.59.32,2.07,2.07,0,0,1,1.22-.79,2.47,2.47,0,0,0-1.08.26A3.14,3.14,0,0,1,64.27,41a4,4,0,0,0-1.57.08,3.94,3.94,0,0,1,2.54-.2,4.09,4.09,0,0,0-1.49-.22,4.27,4.27,0,0,1,1.15,0,3.92,3.92,0,0,0-3.32.69,2,2,0,0,1,1.08-.86,1.1,1.1,0,0,0-.66.11,2.12,2.12,0,0,1,1.41-.35,2.39,2.39,0,0,0-1.11-.1,3.13,3.13,0,0,1,2.2.15,3.85,3.85,0,0,0-1.5-.43,3.93,3.93,0,0,1,2.46.63,4.26,4.26,0,0,0-1.34-.69l.15,0a3.59,3.59,0,0,0-2.56,0,2,2,0,0,1,1.28-.5,1.13,1.13,0,0,0-.66-.09,2.05,2.05,0,0,1,1.45.08,2.42,2.42,0,0,0-1-.43,3.14,3.14,0,0,1,2.06.8,4,4,0,0,0-1.31-.86,3.93,3.93,0,0,1,2.17,1.33,4.39,4.39,0,0,0-1.08-1.06,3.86,3.86,0,0,1,1.57,1.45,3.56,3.56,0,0,0-.65-1l.17.14A4,4,0,0,0,62.63,38a2,2,0,0,1,1.37.05,1.09,1.09,0,0,0-.56-.35,2.12,2.12,0,0,1,1.3.65s-.41-.65-.78-.8a3.12,3.12,0,0,1,1.57,1.55,3.79,3.79,0,0,0-.86-1.31,3.94,3.94,0,0,1,1.47,2.08,4.33,4.33,0,0,0-.58-1.4A4.26,4.26,0,0,1,66.35,40v-.14a2.19,2.19,0,0,0-.14-.5,1.81,1.81,0,0,1,.16.33l.2-1.68.18,1.52.08-.19a2.17,2.17,0,0,0-.07.24l0,.21a4.49,4.49,0,0,1,.69-1.27,4.34,4.34,0,0,0-.54,1.41,3.93,3.93,0,0,1,1.42-2.12,3.81,3.81,0,0,0-.83,1.33,3.06,3.06,0,0,1,1.53-1.58,2.44,2.44,0,0,0-.76.81,2.14,2.14,0,0,1,1.29-.68A1.08,1.08,0,0,0,69,38a2.08,2.08,0,0,1,1.37-.08,4.05,4.05,0,0,0-3.11,2,2.13,2.13,0,0,1,.31-.29,3.85,3.85,0,0,0-.65,1,3.86,3.86,0,0,1,1.58-1.44,4.07,4.07,0,0,0-1.08,1,3.93,3.93,0,0,1,2.17-1.33,3.9,3.9,0,0,0-1.31.86,3.11,3.11,0,0,1,2-.8,2.56,2.56,0,0,0-1,.43,2.11,2.11,0,0,1,1.45-.08,1.09,1.09,0,0,0-.65.09,2,2,0,0,1,1.28.5,3.54,3.54,0,0,0-2.62,0l.26-.06a4.37,4.37,0,0,0-1.35.69,4,4,0,0,1,2.47-.63,4,4,0,0,0-1.51.44,3.09,3.09,0,0,1,2.2-.16,2.41,2.41,0,0,0-1.11.1,2.1,2.1,0,0,1,1.41.35,1,1,0,0,0-.65-.1,2,2,0,0,1,1.08.85,3.92,3.92,0,0,0-3.27-.7,4.94,4.94,0,0,1,1.05,0,4.09,4.09,0,0,0-1.49.22,3.92,3.92,0,0,1,2.53.2A4,4,0,0,0,68.85,41a3.17,3.17,0,0,1,2.13.57,2.47,2.47,0,0,0-1.08-.26,2.07,2.07,0,0,1,1.21.79,1.06,1.06,0,0,0-.58-.32,2.09,2.09,0,0,1,.74,1.17c-1-1.6-2.92-1.82-4-1.81a.12.12,0,0,1,.07.11.12.12,0,0,1-.12.12l-.07,0a0,0,0,0,1,0,0,.1.1,0,0,1,0,.07.09.09,0,0,1-.08.09h0a.43.43,0,0,1,0,0,.14.14,0,0,1-.14.14.14.14,0,0,1-.13-.1h-.09l0,.45h0l.07,1-.19,0h.19l.07.95-.26,0,.26,0L67,45l-.33,0,.33,0,.06.92-.39,0,.4,0,.07,1a9.71,9.71,0,0,1,2.51-.37,10.47,10.47,0,0,1,5.71,2S71.21,46.68,67.94,48.07Z"/><path class="cls-1" d="M48.07,43.44h0Z"/><path class="cls-1" d="M21.6,79.9a4.34,4.34,0,0,1-1,1.47,4.81,4.81,0,0,1-1.56,1,5.28,5.28,0,0,1-2,.35H13.61V73.48h3.44a5.49,5.49,0,0,1,2,.35,4.62,4.62,0,0,1,1.56,1,4.39,4.39,0,0,1,1,1.46,4.91,4.91,0,0,1,0,3.64ZM20,76.84a2.93,2.93,0,0,0-.65-1,2.86,2.86,0,0,0-1-.66A3.45,3.45,0,0,0,17,74.94H15.22v6.3H17A3.65,3.65,0,0,0,18.36,81a2.71,2.71,0,0,0,1-.65,2.89,2.89,0,0,0,.65-1,3.25,3.25,0,0,0,.23-1.26A3.3,3.3,0,0,0,20,76.84Z"/><path class="cls-1" d="M25.63,81.1a2,2,0,0,0,1.32.46,2.32,2.32,0,0,0,1-.21,3.38,3.38,0,0,0,.86-.62l.94.83a4.1,4.1,0,0,1-1.2,1,3.65,3.65,0,0,1-1.65.35,3.79,3.79,0,0,1-1.4-.26,3.32,3.32,0,0,1-1.89-1.88,3.72,3.72,0,0,1-.28-1.48,3.88,3.88,0,0,1,.25-1.41,3.44,3.44,0,0,1,1.78-1.94,3.23,3.23,0,0,1,1.37-.29,3.29,3.29,0,0,1,1.45.3,3.17,3.17,0,0,1,1.05.82,3.59,3.59,0,0,1,.62,1.2,4.92,4.92,0,0,1,.21,1.44v.21a1.5,1.5,0,0,0,0,.22H24.94A2.11,2.11,0,0,0,25.63,81.1Zm2.87-2.36a2.71,2.71,0,0,0-.17-.72,1.89,1.89,0,0,0-.36-.58,1.74,1.74,0,0,0-.53-.39,1.59,1.59,0,0,0-.7-.14,1.62,1.62,0,0,0-1.22.5,2.3,2.3,0,0,0-.59,1.33Z"/><path class="cls-1" d="M36.17,75.75h1.67l-2.84,7H33.56l-2.86-7h1.71l1.88,5.11Z"/><path class="cls-1" d="M40.7,81.1a2,2,0,0,0,1.32.46,2.34,2.34,0,0,0,1-.21,3.56,3.56,0,0,0,.86-.62l.93.83a3.93,3.93,0,0,1-1.19,1,3.67,3.67,0,0,1-1.66.35,3.83,3.83,0,0,1-1.4-.26,3.4,3.4,0,0,1-1.89-1.88,3.9,3.9,0,0,1-.28-1.48,4.1,4.1,0,0,1,.25-1.41,3.54,3.54,0,0,1,.71-1.15,3.35,3.35,0,0,1,1.07-.79,3.27,3.27,0,0,1,1.37-.29,3.34,3.34,0,0,1,1.46.3,3.13,3.13,0,0,1,1,.82,3.44,3.44,0,0,1,.63,1.2,4.92,4.92,0,0,1,.21,1.44,1.48,1.48,0,0,1,0,.21,1.8,1.8,0,0,1,0,.22H40A2.06,2.06,0,0,0,40.7,81.1Zm2.88-2.36A2.71,2.71,0,0,0,43.4,78a1.7,1.7,0,0,0-.35-.58,1.87,1.87,0,0,0-.53-.39,1.78,1.78,0,0,0-1.93.36A2.3,2.3,0,0,0,40,78.74Z"/><path class="cls-1" d="M46.86,82.7V73.08h1.6V82.7Z"/><path class="cls-1" d="M57.29,80.64a3.77,3.77,0,0,1-.78,1.15,3.57,3.57,0,0,1-1.18.78,3.67,3.67,0,0,1-1.49.29,3.74,3.74,0,0,1-1.47-.28,3.63,3.63,0,0,1-1.17-.78,3.47,3.47,0,0,1-.77-1.15,3.43,3.43,0,0,1-.28-1.4,3.78,3.78,0,0,1,.28-1.42,3.55,3.55,0,0,1,.78-1.15,3.6,3.6,0,0,1,1.18-.79,3.76,3.76,0,0,1,1.48-.29,4,4,0,0,1,1.48.28,3.63,3.63,0,0,1,1.17.78,3.51,3.51,0,0,1,.77,1.16,3.45,3.45,0,0,1,.28,1.41A3.51,3.51,0,0,1,57.29,80.64Zm-1.48-2.26a2.62,2.62,0,0,0-.44-.72A2.06,2.06,0,0,0,53.84,77a2,2,0,0,0-.86.18,1.93,1.93,0,0,0-.66.48,2.14,2.14,0,0,0-.42.7,2.74,2.74,0,0,0-.14.87,2.35,2.35,0,0,0,.16.87,2.16,2.16,0,0,0,.43.72,2.28,2.28,0,0,0,.67.48,2,2,0,0,0,.85.18,2.05,2.05,0,0,0,.87-.18,2,2,0,0,0,.66-.48,2.19,2.19,0,0,0,.42-.71,2.63,2.63,0,0,0,.14-.86A2.49,2.49,0,0,0,55.81,78.38Z"/><path class="cls-1" d="M66.12,80.77a3.6,3.6,0,0,1-.73,1.14,3,3,0,0,1-1,.7,3.15,3.15,0,0,1-1.21.24,2.52,2.52,0,0,1-1.42-.37,3.5,3.5,0,0,1-.93-.86v3.19H59.19V75.75H60.8v1.16a3.37,3.37,0,0,1,1-.93,2.46,2.46,0,0,1,1.4-.38,3.13,3.13,0,0,1,1.2.24,3.09,3.09,0,0,1,1,.7,3.71,3.71,0,0,1,.73,1.14,4.48,4.48,0,0,1,0,3.09Zm-1.5-2.47a2.17,2.17,0,0,0-.43-.71,1.89,1.89,0,0,0-1.4-.61,2.09,2.09,0,0,0-.78.16,1.94,1.94,0,0,0-.64.46,2.21,2.21,0,0,0-.45.7,2.49,2.49,0,0,0-.16.93,2.43,2.43,0,0,0,.16.92,2.21,2.21,0,0,0,.45.7,1.94,1.94,0,0,0,.64.46,2.09,2.09,0,0,0,.78.16,1.89,1.89,0,0,0,1.4-.61,2.17,2.17,0,0,0,.43-.71,2.75,2.75,0,0,0,0-1.85Z"/><path class="cls-1" d="M69.92,81.1a2,2,0,0,0,1.32.46,2.32,2.32,0,0,0,1-.21,3.38,3.38,0,0,0,.86-.62l.94.83a4.1,4.1,0,0,1-1.2,1,3.65,3.65,0,0,1-1.65.35,3.79,3.79,0,0,1-1.4-.26,3.4,3.4,0,0,1-1.14-.74,3.61,3.61,0,0,1-.76-1.14,4.15,4.15,0,0,1,0-2.89,3.51,3.51,0,0,1,.7-1.15,3.39,3.39,0,0,1,1.08-.79A3.23,3.23,0,0,1,71,75.6a3.29,3.29,0,0,1,1.45.3,3,3,0,0,1,1,.82,3.44,3.44,0,0,1,.63,1.2,4.92,4.92,0,0,1,.21,1.44v.21a1.5,1.5,0,0,0,0,.22H69.23A2.11,2.11,0,0,0,69.92,81.1Zm2.87-2.36a2.71,2.71,0,0,0-.17-.72,1.89,1.89,0,0,0-.36-.58,1.74,1.74,0,0,0-.53-.39,1.76,1.76,0,0,0-1.92.36,2.24,2.24,0,0,0-.59,1.33Z"/><path class="cls-1" d="M77.59,82.7H76v-7h1.61v1.56a3.15,3.15,0,0,1,.93-1.26,2.28,2.28,0,0,1,1.53-.44V77.3H80a2.69,2.69,0,0,0-1,.17,2.15,2.15,0,0,0-1.24,1.38,3.72,3.72,0,0,0-.17,1.21Z"/><path class="cls-1" d="M86.19,81.61a1.82,1.82,0,0,1-.55.68,2.34,2.34,0,0,1-.82.41,3.68,3.68,0,0,1-1,.14,4.92,4.92,0,0,1-3-1l.72-1.08a4.12,4.12,0,0,0,1.15.64,3.14,3.14,0,0,0,1.13.22,1.38,1.38,0,0,0,.79-.2.65.65,0,0,0,.29-.55v0a.53.53,0,0,0-.13-.34,1.17,1.17,0,0,0-.34-.26A2.9,2.9,0,0,0,84,80l-.59-.18-.77-.27a2.75,2.75,0,0,1-.7-.37,2,2,0,0,1-.51-.57,1.62,1.62,0,0,1-.19-.83v0a1.93,1.93,0,0,1,.19-.88,2,2,0,0,1,.53-.68,2.38,2.38,0,0,1,.79-.42,3.32,3.32,0,0,1,1-.14,4.51,4.51,0,0,1,1.34.21,4.72,4.72,0,0,1,1.22.58l-.63,1.13a5.54,5.54,0,0,0-1-.48,2.83,2.83,0,0,0-.94-.18,1.16,1.16,0,0,0-.72.2.61.61,0,0,0-.26.5v0a.44.44,0,0,0,.13.32,1.37,1.37,0,0,0,.35.25,2.89,2.89,0,0,0,.5.21l.59.19a7.77,7.77,0,0,1,.76.28,2.58,2.58,0,0,1,.69.39,1.82,1.82,0,0,1,.51.56,1.56,1.56,0,0,1,.2.8v0A2.19,2.19,0,0,1,86.19,81.61Z"/></svg>